<svg data-v-423bf9ae="" xmlns="http://www.w3.org/2000/svg" viewBox="0 0 484.99998419573876 163" class="iconAbove"><!----><!----><!----><g data-v-423bf9ae="" id="4a5942ce-f6e5-4635-8b7f-0549f3b7c47a" fill="#AEFFF4" transform="matrix(5.681817956043021,0,0,5.681817956043021,-2.7840960635383567,102.37500084778576)"><path d="M0.49 10.50L4.62 10.50L4.62 10.09C3.18 10.01 3.14 9.98 3.14 9.20L3.14 6.52L3.93 6.52C4.58 6.52 5.21 6.47 5.73 6.34C6.80 6.06 8.04 5.31 8.04 3.56C8.04 2.49 7.57 1.76 6.94 1.37C6.27 0.95 5.38 0.81 4.40 0.81L0.49 0.81L0.49 1.22C1.72 1.30 1.75 1.33 1.75 2.11L1.75 9.20C1.75 9.98 1.72 10.01 0.49 10.09ZM3.14 5.49L3.14 1.82C3.14 1.43 3.29 1.30 4.20 1.30C5.64 1.30 6.52 2.13 6.52 3.65C6.52 5.40 5.38 6.03 4.17 6.03C3.35 6.03 3.14 6.01 3.14 5.49ZM8.69 10.50L12.10 10.50L12.10 10.09C11.13 10.02 11.05 9.97 11.05 9.28L11.05 6.01C11.05 5.66 11.06 5.46 11.17 5.25C11.47 4.69 12.11 4.23 12.85 4.23C13.80 4.23 14.32 4.76 14.32 5.98L14.32 9.28C14.32 9.97 14.25 10.02 13.27 10.09L13.27 10.50L16.69 10.50L16.69 10.09C15.72 10.02 15.64 9.97 15.64 9.28L15.64 5.70C15.64 4.28 14.87 3.47 13.57 3.47C12.54 3.47 11.91 3.95 11.03 4.54L11.03 0.20L10.93 0.11L8.75 0.46L8.75 0.81L9.28 0.88C9.65 0.94 9.73 1.01 9.73 1.51L9.73 9.28C9.73 9.97 9.67 10.02 8.69 10.09ZM17.58 8.68C17.58 9.73 18.28 10.67 19.60 10.67C20.41 10.67 21.24 10.12 21.69 9.83C21.88 10.35 22.11 10.67 22.60 10.67C23.11 10.67 23.72 10.51 24.25 10.25L24.16 9.91C23.97 9.95 23.66 9.98 23.45 9.93C23.20 9.87 22.96 9.60 22.96 8.72L22.96 5.33C22.96 4.52 22.78 3.47 20.66 3.47C19.08 3.47 17.84 4.30 17.84 5.07C17.84 5.52 18.35 5.73 18.62 5.73C18.91 5.73 19.00 5.57 19.07 5.33C19.38 4.30 19.95 3.96 20.51 3.96C21.06 3.96 21.70 4.24 21.70 5.36L21.70 5.95C21.35 6.31 19.99 6.66 18.89 7.01C17.88 7.32 17.58 8.02 17.58 8.68ZM19.00 8.48C19.00 7.83 19.31 7.49 20.09 7.20C20.65 6.99 21.39 6.72 21.70 6.52L21.70 8.50C21.70 9.63 20.83 9.93 20.29 9.93C19.42 9.93 19.00 9.31 19.00 8.48ZM24.67 10.50L28.36 10.50L28.36 10.09C27.12 10.02 27.03 10.00 27.03 9.28L27.03 6.01C27.03 4.93 27.51 4.56 27.83 4.56C28.06 4.56 28.29 4.65 28.70 4.87C28.80 4.93 28.91 4.94 28.98 4.94C29.32 4.94 29.62 4.59 29.62 4.16C29.62 3.85 29.43 3.47 28.88 3.47C28.38 3.47 27.96 3.78 27.03 4.59L26.87 3.47L24.74 3.82L24.74 4.17L25.27 4.24C25.63 4.30 25.72 4.37 25.72 4.87L25.72 9.28C25.72 10.00 25.65 10.02 24.67 10.09ZM30.11 10.50L33.53 10.50L33.53 10.09C32.54 10.02 32.48 10.00 32.48 9.28L32.48 6.01C32.48 5.66 32.49 5.46 32.59 5.26C32.86 4.70 33.47 4.23 34.24 4.23C35.45 4.23 35.59 5.11 35.59 5.98L35.59 9.28C35.59 10.00 35.55 10.02 34.54 10.09L34.54 10.50L37.95 10.50L37.95 10.09C36.96 10.02 36.90 10.00 36.90 9.28L36.90 6.01C36.90 5.66 36.92 5.46 37.00 5.24C37.21 4.68 37.81 4.23 38.60 4.23C39.48 4.23 40.01 4.73 40.01 5.98L40.01 9.28C40.01 10.00 39.97 10.02 38.96 10.09L38.96 10.50L42.38 10.50L42.38 10.09C41.38 10.02 41.33 10.00 41.33 9.28L41.33 5.70C41.33 4.28 40.57 3.47 39.24 3.47C38.09 3.47 37.27 4.24 36.78 4.55C36.44 3.89 35.91 3.47 34.93 3.47C33.85 3.47 32.97 4.17 32.48 4.54L32.35 3.47L30.18 3.82L30.18 4.17L30.72 4.24C31.08 4.30 31.16 4.37 31.16 4.87L31.16 9.28C31.16 10.00 31.12 10.02 30.11 10.09ZM43.27 8.68C43.27 9.73 43.97 10.67 45.29 10.67C46.10 10.67 46.93 10.12 47.38 9.83C47.57 10.35 47.80 10.67 48.29 10.67C48.80 10.67 49.41 10.51 49.94 10.25L49.85 9.91C49.66 9.95 49.35 9.98 49.14 9.93C48.89 9.87 48.65 9.60 48.65 8.72L48.65 5.33C48.65 4.52 48.47 3.47 46.35 3.47C44.77 3.47 43.53 4.30 43.53 5.07C43.53 5.52 44.04 5.73 44.31 5.73C44.60 5.73 44.69 5.57 44.76 5.33C45.07 4.30 45.64 3.96 46.20 3.96C46.75 3.96 47.39 4.24 47.39 5.36L47.39 5.95C47.04 6.31 45.68 6.66 44.58 7.01C43.57 7.32 43.27 8.02 43.27 8.68ZM44.69 8.48C44.69 7.83 45.00 7.49 45.78 7.20C46.34 6.99 47.08 6.72 47.39 6.52L47.39 8.50C47.39 9.63 46.52 9.93 45.98 9.93C45.11 9.93 44.69 9.31 44.69 8.48ZM50.22 3.14L50.64 3.14C50.81 1.61 51.10 1.30 52.74 1.30L53.56 1.30L53.56 9.20C53.56 9.98 53.52 10.01 52.02 10.09L52.02 10.50L56.49 10.50L56.49 10.09C54.99 10.01 54.95 9.98 54.95 9.20L54.95 1.30L55.78 1.30C57.41 1.30 57.71 1.61 57.88 3.14L58.30 3.14L58.30 0.81L50.22 0.81ZM59.05 10.50L62.75 10.50L62.75 10.09C61.50 10.02 61.42 10.00 61.42 9.28L61.42 6.01C61.42 4.93 61.89 4.56 62.22 4.56C62.44 4.56 62.68 4.65 63.08 4.87C63.18 4.93 63.29 4.94 63.36 4.94C63.70 4.94 64.01 4.59 64.01 4.16C64.01 3.85 63.81 3.47 63.27 3.47C62.76 3.47 62.34 3.78 61.42 4.59L61.25 3.47L59.12 3.82L59.12 4.17L59.65 4.24C60.02 4.30 60.10 4.37 60.10 4.87L60.10 9.28C60.10 10.00 60.03 10.02 59.05 10.09ZM64.74 8.68C64.74 9.73 65.44 10.67 66.75 10.67C67.56 10.67 68.39 10.12 68.84 9.83C69.03 10.35 69.26 10.67 69.75 10.67C70.27 10.67 70.87 10.51 71.40 10.25L71.32 9.91C71.12 9.95 70.81 9.98 70.60 9.93C70.35 9.87 70.11 9.60 70.11 8.72L70.11 5.33C70.11 4.52 69.93 3.47 67.82 3.47C66.23 3.47 64.99 4.30 64.99 5.07C64.99 5.52 65.51 5.73 65.77 5.73C66.07 5.73 66.15 5.57 66.22 5.33C66.53 4.30 67.10 3.96 67.66 3.96C68.21 3.96 68.85 4.24 68.85 5.36L68.85 5.95C68.50 6.31 67.14 6.66 66.04 7.01C65.03 7.32 64.74 8.02 64.74 8.68ZM66.15 8.48C66.15 7.83 66.46 7.49 67.24 7.20C67.80 6.99 68.54 6.72 68.85 6.52L68.85 8.50C68.85 9.63 67.98 9.93 67.44 9.93C66.57 9.93 66.15 9.31 66.15 8.48ZM72.06 7.14C72.06 9.48 73.21 10.67 75.31 10.67C76.29 10.67 77.60 10.15 77.99 8.65L77.59 8.46C77.15 9.44 76.59 9.94 75.57 9.94C73.91 9.94 73.51 8.20 73.51 6.89C73.51 4.80 74.34 3.96 75.31 3.96C75.95 3.96 76.36 4.42 76.64 5.18C76.72 5.40 76.80 5.54 77.07 5.54C77.35 5.54 77.90 5.36 77.90 4.83C77.90 4.19 76.97 3.47 75.46 3.47C72.91 3.47 72.06 5.28 72.06 7.14ZM78.60 10.50L82.01 10.50L82.01 10.09C81.02 10.02 80.96 10.00 80.96 9.28L80.96 6.94L80.99 6.94C81.56 7.85 82.56 9.07 83.29 9.81C83.80 10.33 84.35 10.50 84.80 10.53L85.85 10.57L85.85 10.18C85.43 10.07 85.08 9.86 84.64 9.42C83.78 8.57 82.68 7.24 82.15 6.48C82.08 6.38 82.05 6.31 82.19 6.16C82.87 5.39 83.31 4.98 83.79 4.63C84.27 4.28 84.62 4.12 85.43 4.03L85.43 3.64L83.99 3.64C83.51 3.64 83.38 3.71 83.10 4.05C82.70 4.54 81.31 6.27 80.99 6.75L80.96 6.75L80.96 0.20L80.86 0.11L78.67 0.46L78.67 0.81L79.20 0.87C79.56 0.91 79.65 0.98 79.65 1.51L79.65 9.28C79.65 10.00 79.60 10.02 78.60 10.09Z"></path></g><!----><g data-v-423bf9ae="" id="d64d8e0f-a559-4167-aa83-b29cb42ccf0f" transform="matrix(1.4999988555916934,0,0,1.4999988555916934,199.48318560107194,1.0000236196142964)" stroke="none" fill="#AEFFF4"><circle cx="45" cy="5" r="1.5"></circle><circle cx="32" cy="24" r="1.5"></circle><path d="M56 33V19c0-4.41-3.59-8-8-8s-8 3.59-8 8v14c0 4.41 3.59 8 8 8s8-3.59 8-8zm-8-20c3.31 0 6 2.69 6 6v6H42v-6c0-3.31 2.69-6 6-6zm0 26c-3.31 0-6-2.69-6-6v-6h12v6c0 3.31-2.69 6-6 6zM26.89 34.12c-2.14 0-4.15.83-5.66 2.33l-9.9 9.9A7.981 7.981 0 0 0 9 52.01c0 2.14.83 4.15 2.33 5.66 1.51 1.51 3.51 2.33 5.66 2.33 2.14 0 4.15-.83 5.66-2.33l9.9-9.9c3.12-3.12 3.12-8.19 0-11.31a7.949 7.949 0 0 0-5.66-2.34zm-5.66 22.13A5.926 5.926 0 0 1 16.99 58c-1.61 0-3.11-.62-4.24-1.75S11 53.62 11 52.01c0-1.61.62-3.11 1.75-4.24l4.24-4.24 8.49 8.49-4.25 4.23zm9.9-9.9l-4.24 4.24-8.49-8.49 4.24-4.24a5.943 5.943 0 0 1 4.24-1.75c1.61 0 3.11.62 4.24 1.75 2.35 2.35 2.35 6.15.01 8.49zM12.23 23.55c1.51 1.51 3.51 2.33 5.66 2.33 2.14 0 4.15-.83 5.66-2.33 3.12-3.12 3.12-8.19 0-11.31l-9.9-9.9A7.949 7.949 0 0 0 7.99 0C5.85 0 3.84.83 2.33 2.33A7.981 7.981 0 0 0 0 7.99c0 2.14.83 4.15 2.33 5.66l9.9 9.9zm9.9-1.42a5.943 5.943 0 0 1-4.24 1.75c-1.61 0-3.11-.62-4.24-1.75l-4.24-4.24L17.9 9.4l4.24 4.24c2.33 2.35 2.33 6.15-.01 8.49zM3.75 3.75A5.943 5.943 0 0 1 7.99 2c1.61 0 3.11.62 4.24 1.75l4.24 4.24-8.49 8.49-4.24-4.24A5.998 5.998 0 0 1 2 7.99c0-1.61.62-3.11 1.75-4.24zM10.17 36c.55 0 1-.45 1-1s-.45-1-1-1h-3v-3c0-.55-.45-1-1-1s-1 .45-1 1v3h-3c-.55 0-1 .45-1 1s.45 1 1 1h3v3c0 .55.45 1 1 1s1-.45 1-1v-3h3zM55.59 53.83l2.12-2.12a.996.996 0 1 0-1.41-1.41l-2.12 2.12-2.12-2.12a.996.996 0 1 0-1.41 1.41l2.12 2.12-2.12 2.12a.996.996 0 0 0 .71 1.7c.26 0 .51-.1.71-.29l2.12-2.12 2.12 2.12c.2.2.45.29.71.29s.51-.1.71-.29a.996.996 0 0 0 0-1.41l-2.14-2.12z"></path></g><!----></svg>